<svg xmlns="http://www.w3.org/2000/svg" xmlns:xlink="http://www.w3.org/1999/xlink" xml:space="preserve" version="1.0" viewBox="0 0 229.9 41.1"><defs><path id="a" d="M0 0h229.9v41.1H0z"/></defs><clipPath id="b"><use xlink:href="#a" overflow="visible"/></clipPath><g clip-path="url(#b)"><path fill="#0052FF" d="M46.4 11.5c-8.4 0-14.9 6.3-14.9 14.8s6.4 14.8 14.9 14.8 15-6.4 15-14.8-6.4-14.8-15-14.8zm.1 23.4c-4.8 0-8.2-3.7-8.2-8.7 0-5 3.4-8.7 8.2-8.7 4.8 0 8.3 3.7 8.3 8.7s-3.6 8.7-8.3 8.7zm16.7-17h4.1v22.6H74V12H63.2v5.9zm-48.4-.3c3.5 0 6.3 2.1 7.3 5.3h7c-1.3-6.8-6.9-11.5-14.3-11.5C6.5 11.5 0 17.8 0 26.3s6.4 14.8 14.9 14.8c7.2 0 12.9-4.6 14.2-11.5h-7a7.5 7.5 0 0 1-7.2 5.4c-4.8 0-8.2-3.7-8.2-8.7 0-5 3.3-8.7 8.1-8.7zm174.5 5.9-4.9-.7c-2.3-.3-4-1.1-4-2.9 0-2 2.2-3 5.1-3 3.2 0 5.3 1.4 5.7 3.6h6.4c-.7-5.7-5.1-9.1-11.9-9.1-7 0-11.7 3.6-11.7 8.7 0 4.8 3 7.7 9.2 8.5l4.9.7c2.4.3 3.7 1.3 3.7 3 0 2.3-2.3 3.2-5.5 3.2-3.9 0-6.1-1.6-6.5-4h-6.5c.6 5.6 5 9.5 12.9 9.5 7.2 0 12.1-3.3 12.1-9 0-5-3.5-7.6-9-8.5zM70.7.3c-2.4 0-4.3 1.8-4.3 4.2s1.8 4.2 4.3 4.2c2.4 0 4.3-1.8 4.3-4.2S73.1.3 70.7.3zm97.4 21.5c0-6.2-3.8-10.3-11.7-10.3-7.5 0-11.7 3.8-12.6 9.6h6.6c.3-2.3 2.1-4.1 5.9-4.1 3.4 0 5 1.5 5 3.3 0 2.4-3 3-6.8 3.4-5.1.6-11.4 2.3-11.4 8.9 0 5.1 3.8 8.4 9.9 8.4 4.8 0 7.7-2 9.2-5.1.2 2.8 2.3 4.6 5.3 4.6h3.9v-5.9h-3.3V21.8zm-6.6 7.1c0 3.8-3.3 6.6-7.4 6.6-2.5 0-4.6-1-4.6-3.3 0-2.8 3.4-3.6 6.5-3.9 3-.3 4.6-.9 5.5-2.2v2.8zm-35.2-17.4c-3.7 0-6.8 1.5-9 4.1V0h-6.6v40.5h6.5v-3.7c2.2 2.7 5.4 4.3 9.1 4.3 8 0 14-6.3 14-14.8s-6.1-14.8-14-14.8zm-1 23.4c-4.8 0-8.2-3.7-8.2-8.7s3.5-8.7 8.3-8.7c4.8 0 8.2 3.7 8.2 8.7 0 5.1-3.5 8.7-8.3 8.7zM94.8 11.5c-4.3 0-7.1 1.8-8.8 4.2V12h-6.6v28.5H86V25c0-4.4 2.8-7.4 6.9-7.4 3.8 0 6.2 2.7 6.2 6.6v16.3h6.6V23.7c0-7.2-3.7-12.2-10.9-12.2zm135.1 13.9c0-8.2-6-13.9-14-13.9-8.5 0-14.8 6.4-14.8 14.8 0 8.9 6.7 14.8 14.9 14.8 6.9 0 12.3-4.1 13.7-9.9h-6.9c-1 2.5-3.4 4-6.7 4-4.3 0-7.5-2.6-8.2-7.3h22v-2.5zm-21.6-2.2c1.1-4 4-5.9 7.5-5.9 3.8 0 6.6 2.1 7.3 5.9h-14.8z"/></g></svg>
