<svg xmlns="http://www.w3.org/2000/svg" fill="#ffffff75" version="1.0" viewBox="0 0 900 624"><path d="M41 23.9c0 18.1.3 24.2 1.3 24.8.6.4 4.8.7 9.2.8h8l.3 4c.4 4.7 1.3 5.5 7 5.5 3.9 0 4.9-.5 9.5-5.1l5.2-5.1 6.2.6 6.1.5 11.1-10.5L116 28.8V0h-7.2l.6 12.2.6 12.2-6.9 6.9-6.9 6.9-9.6-.4-9.6-.3-4.3 4.8c-5.7 6.2-7.5 6.2-7.9 0l-.3-4.8H52.6l.3-18.8.3-18.7H41v23.9zm144 .6c0 18.9.3 24.5 1.3 24.6.6.1 4.8.2 9.2.3l8 .1.3 4c.4 4.7 1.3 5.5 7 5.5 3.8 0 4.9-.6 9.8-5.1l5.4-5.2 5.9.6 5.9.6 11.1-10.5L260 28.8V0h-6.5l.4 12.1.3 12-7 7-7 7-9.6-.2-9.7-.3-4.3 4.7c-5.6 6.2-7.4 6.1-7.8 0l-.3-4.8h-11.9l.3-18.8.3-18.7H185v24.5zm144-.6c0 18.1.3 24.2 1.3 24.8.6.4 4.8.8 9.2.8h8l.3 4c.4 4.7 1.3 5.5 7 5.5 3.9 0 4.9-.5 9.5-5.1l5.2-5.1 6.3.5 6.3.5L393 39.3l11-10.5V0h-6.5l.4 12 .3 12-6.8 7.1-6.9 7-9.8-.3c-10.9-.3-9.4-1-15.9 7.1-1 1.1-2.7 2.1-3.8 2.1-1.7 0-2-.7-2-4.5 0-2.9-.4-4.5-1.2-4.6-.7 0-3.5-.1-6.2-.2l-5-.2.3-18.8.3-18.7H329v23.9zm144.2.3.3 24.3 9 .5 9 .5.3 4.2c.3 3.6.7 4.4 2.8 4.9 5.1 1.3 9.6-.3 14.3-5.2l4.6-4.6 6.2.5 6.2.6L537 39.4l11-10.6V0h-7.3l.6 12.1.6 12.2-6.7 7-6.7 6.9-9.5-.5-9.4-.4-4.7 4.8c-6.1 6.3-7.9 6.4-7.9.4 0-4.9.2-4.8-7.2-4.5-3.4.1-4.8-.2-4.9-1.2 0-.7 0-9.3.1-19.1l.1-17.7H473l.2 24.2zm143.8-.3c0 18.1.3 24.2 1.3 24.8.6.4 4.8.7 9.2.8h8l.3 4c.4 4.7 1.3 5.5 7 5.5 3.9 0 4.9-.5 9.5-5.1l5.2-5.1 6.3.6 6.3.7L681 39.4l11-10.7V0h-7.3l.6 12.1.6 12.2-6.7 6.9-6.7 6.9-9.7-.3-9.8-.3-4.3 4.8c-5.7 6.1-7.7 6.2-7.7.3 0-5.1-.7-5.6-6.5-4.5-2.2.4-4.4.4-4.9-.1s-.8-9.3-.7-19.5l.2-18.5H617v23.9z"/><path d="M669 1.4c0 .8-.7 1.7-1.5 2-1.3.5-1.5 2.3-1.3 10.8l.3 10.3h7l.3-9.8c.2-8.1 0-10.1-1.5-12.2-2-2.7-3.3-3.2-3.3-1.1zm92 22.5c0 18.1.3 24.2 1.3 24.8.6.4 4.8.7 9.2.8h8l.3 4c.4 4.7 1.3 5.5 7 5.5 3.9 0 4.9-.5 9.5-5.1l5.2-5.1 6.4.6 6.3.5 10.9-10.6L836 28.7V0h-7.1l.6 12.1.5 12.1-6.7 7-6.7 6.9-9.9-.2-9.8-.3-4.3 4.7c-5.6 6.2-7.4 6.1-7.8-.1l-.3-4.7-5.7.3c-4.3.3-5.8 0-5.9-1 0-.7 0-9.3.1-19.1l.1-17.7H761v23.9zM73.2 3.1c-2.2.8-2.3 1.2-2 11.1l.3 10.3h8v-9.9c-.1-8.7-.3-10.1-2-11.2-1.3-.8-2.8-.9-4.3-.3zm18.5.2c-1.5 1-1.7 2.7-1.5 11.2l.3 10h7l.3-9.9c.3-11.9-1.3-14.9-6.1-11.3zm125 0c-1.5 1-1.7 2.7-1.5 11.2l.3 10h8l.1-9.8c.1-8.8-.1-9.9-2-11.2-2.5-1.8-2.8-1.8-4.9-.2zm19 0c-1.5 1-1.7 2.7-1.5 11.2l.3 10h7l.3-10c.2-8.5 0-10.2-1.5-11.2-.9-.7-2-1.3-2.3-1.3-.3 0-1.4.6-2.3 1.3zm125 0c-1.5 1-1.7 2.7-1.5 11.2l.3 10h8l.1-9.8c0-8.8-.2-10-2-11.3-2.5-1.7-2.8-1.7-4.9-.1zm19 0c-1.5 1-1.7 2.7-1.5 11.2l.3 10h7l.3-10c.2-8.5 0-10.2-1.5-11.2-.9-.7-2-1.3-2.3-1.3-.3 0-1.4.6-2.3 1.3zm144 0c-1.5 1-1.7 2.7-1.5 11.2l.3 10h7l.3-10c.2-8.5 0-10.2-1.5-11.2-.9-.7-2-1.3-2.3-1.3-.3 0-1.4.6-2.3 1.3z"/><path d="M793.2 3.1c-2.2.8-2.3 1.2-2 11.1l.3 10.3h8v-9.9c-.1-8.7-.3-10.1-2-11.2-1.3-.8-2.8-.9-4.3-.3zm18.5.2c-1.5 1-1.7 2.7-1.5 11.2l.3 10h7l.3-10c.2-8.5 0-10.2-1.5-11.2-.9-.7-2-1.3-2.3-1.3-.3 0-1.4.6-2.3 1.3zm-308.3 1c-.3.8-.3 5.6-.2 10.8l.3 9.4h8V15c0-5.2-.4-10.1-.9-10.8-1.1-1.6-6.5-1.6-7.2.1zm144 0c-.3.8-.3 5.6-.2 10.8l.3 9.4h8l.1-9.5c.1-5.2-.3-10.1-.9-10.8-1.3-1.6-6.6-1.6-7.3.1zM0 57.5V61l18.8.2 18.7.3.1 17.5.1 17.5-6.7 6.8-6.7 6.8-9.9-.2c-9.7-.1-9.8-.1-12.1 2.7C.4 115 0 116.7 0 122.7c0 4.2.4 7.3 1 7.3s1-.3 1-.8c0-.4 1.5-2.4 3.4-4.6 3.4-3.8 3.5-3.8 9.9-3.5l6.5.4 11.1-10.3L44 100.8V78.5c0-21.2-.1-22.5-1.9-23.5-1.2-.6-10.1-1-22-1H0v3.5zm117.6-1.9c-.9.8-1.6 2.7-1.6 4 0 1.4-.7 3.5-1.5 4.8-1.3 1.9-1.5 6.5-1.3 29.2l.3 26.9 9 .5 9 .5.3 4.2c.3 3.6.7 4.4 2.8 4.9 5.1 1.3 9.6-.3 14.3-5.2l4.4-4.7 6.1.6 6.2.6 11.2-10.5 11.2-10.6V56l-2.6-1c-1.4-.6-16.1-1-34.4-1-27.6 0-32.1.2-33.4 1.6zm63 6.6c.5.7.9 8.9.8 18.2l-.1 16.9-6.6 6.4-6.6 6.5-9.7-.4-9.6-.3-4.2 4.8c-5.4 6.2-7.4 6.2-7.8-.1l-.3-4.7h-6c-5.1 0-6-.3-5.9-1.8 0-.9.1-11.8.2-24.2L125 61h27.4c20.7 0 27.6.3 28.2 1.2z"/><path d="M144.1 74.4c-.8.9-1.1 5-.9 11.7l.3 10.4h8l.3-10.1c.2-8.3 0-10.5-1.3-11.8-2-2-4.9-2.1-6.4-.2zm19 0c-.8.9-1.1 5-.9 11.7l.3 10.4h7l.3-10.4c.3-10.7-.4-13.1-3.8-13.1-1 0-2.3.6-2.9 1.4zm98.5-18.8c-.9.8-1.6 2.4-1.6 3.5s-.7 3.3-1.5 4.9c-1.3 2.5-1.5 7.4-1.3 29.7l.3 26.8 9 .5 9 .5.3 4.2c.3 3.6.7 4.4 2.8 4.9 5.2 1.3 9.7-.3 14.1-5.2l4.3-4.7 6.1.6c6.9.6 6.7.8 22.2-14.2l6.7-6.5V56l-2.6-1c-1.4-.6-16.1-1-34.4-1-27.6 0-32.1.2-33.4 1.6zm63.8 23.8-.2 17.8-6.3 6.5-6.4 6.5-9.5-.5-9.5-.5-4.6 4.9c-5.9 6.4-7.7 6.4-8.1.1l-.3-4.7-5.7.3c-4.4.3-5.8.1-5.9-1-.2-7.3.3-46.4.7-47 .3-.5 13-.7 28.2-.6l27.7.3-.1 17.9z"/><path d="M288.1 74.4c-.8.9-1.1 5-.9 11.7l.3 10.4 3.4.3c2 .2 3.7-.2 4.2-.9.4-.8.8-5.5.8-10.6 0-7-.3-9.6-1.5-10.8-1.9-1.9-4.8-1.9-6.3-.1zm19-.1c-.8 1-1.1 4.9-.9 11.8l.3 10.4h7v-23l-2.6-.3c-1.4-.2-3.1.3-3.8 1.1zm98.5-18.7c-.9.8-1.6 2.5-1.6 3.7-.1 1.2-.7 3.3-1.5 4.7-2.2 3.8-2.2 55.8 0 56.6.8.4 5 .7 9.3.8l7.7.1.3 4.2c.3 3.6.7 4.4 2.8 4.9 5.1 1.3 9.6-.3 14.3-5.2l4.6-4.6 6.1.5 6 .6 11.2-10.5 11.2-10.6V78.5c0-21.2-.1-22.5-1.9-23.5-1.3-.6-14-1-34.5-1-28.2 0-32.7.2-34 1.6zM469.5 79v17.5l-6.7 6.9-6.8 6.9-9.2-.6-9.3-.6-4.5 4.9c-5.9 6.4-8 6.6-8 .6 0-2.5-.4-4.7-.9-5.1-.6-.3-2.9-.1-5.3.4-2.5.6-4.7.6-5.2.1-.9-.9-.9-46.7 0-48.2.3-.5 13-.7 28.2-.6l27.7.3V79z"/><path d="M432.1 74.3c-.8 1-1.1 4.8-.9 11.8l.3 10.4 3.4.3c1.9.2 3.7-.2 4.1-.8.9-1.5 1-19.3.1-20.8-1.1-1.9-5.6-2.5-7-.9zm19.6 0c-1.5 1-1.7 2.7-1.5 11.7l.3 10.5h7l.3-10.4c.3-12.4-1.2-15.4-6.1-11.8zm97.9-18.7c-.9.8-1.6 2.5-1.6 3.7-.1 1.2-.7 3.3-1.5 4.7-2.1 3.8-2.2 55.8 0 56.6.8.3 4.9.7 9.2.7l7.8.2.3 4.2c.3 3.6.7 4.4 2.8 4.9 5.2 1.3 9.7-.3 14.1-5.2l4.3-4.7 6 .6c6.8.8 6.8.8 21.8-13.7l7.2-7V78.3c0-21-.1-22.3-1.9-23.3-1.3-.6-14-1-34.5-1-28.2 0-32.7.2-34 1.6zm64.2 23.3.2 17.4-6.9 6.9-6.9 7-9.7-.4-9.7-.3-4.2 4.8c-5.4 6.2-7.4 6.2-7.8 0l-.3-4.8h-11.8l.2-23.4c.1-12.9.5-23.9.7-24.3.3-.5 13-.7 28.2-.6l27.7.3.3 17.4z"/><path d="M576.1 74.3c-.8 1-1.1 4.8-.9 11.8l.3 10.4h8l.3-10c.1-5.5-.1-10.5-.6-11.2-1.3-2-5.7-2.6-7.1-1zm19.6 0c-1.5 1-1.7 2.7-1.5 11.7l.3 10.5h7l.3-10.4c.3-12.4-1.2-15.4-6.1-11.8zm97.9-18.7c-.9.8-1.6 2.4-1.6 3.5s-.7 3.3-1.5 4.9c-1.3 2.5-1.5 7.4-1.3 29.7l.3 26.8 9 .5 9 .5.3 4.2c.4 4.8 1.4 5.5 8.2 4.8 3.8-.3 5.1-1.1 8.8-5.1l4.4-4.7 6.1.6 6.2.7 11.3-10.6 11.2-10.6V78.6c0-15.9-.3-22.5-1.2-23.4-.9-.9-9.9-1.2-34.4-1.2-28.9 0-33.5.2-34.8 1.6zm64 23.4.2 17.5-6.9 6.9-6.8 6.9-9.3-.6-9.3-.5-4.7 5c-5.5 6-7.5 5.9-8-.4l-.3-4.3h-6c-5.1 0-6-.3-5.9-1.8 0-.9.1-11.8.2-24.2L701 61l28.3.2 28.2.3.1 17.5z"/><path d="M720.1 74.3c-.8 1-1.1 4.8-.9 11.8l.3 10.4 2.8.3c4.9.6 5.7-1.1 5.7-11.2 0-5-.4-9.6-.8-10.3-1.2-2-5.7-2.6-7.1-1zm19.6 0c-1.5 1-1.7 2.7-1.5 11.7l.3 10.5h7l.3-10.4c.3-12.4-1.2-15.4-6.1-11.8zm97.9-18.7c-.9.8-1.6 2.7-1.6 4 0 1.4-.7 3.5-1.5 4.8-1.3 1.9-1.5 6.5-1.3 29.2l.3 26.9 9 .5 9 .5.3 4.2c.4 4.8 1.5 5.5 8.1 4.9 3.7-.4 5.1-1.2 8.9-5.1l4.5-4.7 6 .5 6 .5 6.2-5.9c3.4-3.2 6.7-5.9 7.3-5.9.7 0 1.2-1.7 1.2-4.5 0-5.8-1.4-5.8-7 .1l-4.3 4.5-10-.3-9.9-.3-4.2 4.8c-5.4 6.2-7.4 6.2-7.8-.1l-.3-4.7-5.6.3c-4.1.3-5.7 0-6-1-.2-.7-.3-11.8-.1-24.6l.3-23.2H900v-7h-30.4c-26.4 0-30.7.2-32 1.6zM19.7 74.3c-1.5 1-1.7 2.7-1.5 11.7l.3 10.5h7l.3-10.4c.3-12.4-1.2-15.4-6.1-11.8z"/><path d="M864.7 74.3c-1.5 1-1.7 2.7-1.5 11.7l.3 10.5h8l.3-10.1c.2-8.3 0-10.5-1.3-11.8-2-1.9-3.5-2-5.8-.3zm18.5-.5c-.9.6-1.2 3.7-1 11.8l.3 10.9h7l.3-10.9c.3-11.2-.1-12.6-3.8-12.6-.8 0-2.1.4-2.8.8zm-881.9.9C.4 75 0 78.2 0 85.6c0 10.3 0 10.4 2.6 11 1.4.4 2.9.3 3.4-.2 1.1-1.1 1.6-19.6.6-21.2-.7-1.2-3.1-1.5-5.3-.5zm44.3 52.9c-.9.8-1.6 2.4-1.6 3.5s-.7 3.3-1.5 4.9c-1.3 2.5-1.5 7.4-1.3 29.7l.3 26.8 9 .5 9 .5.3 4.2c.3 3.7.6 4.2 3.2 4.8 5.4 1.2 9.7-.4 13.7-5.1l3.8-4.4h14l10.8-10.1 10.7-10.1v-22.4c0-21.1-.1-22.4-1.9-23.4-1.3-.6-14-1-34.5-1-28.2 0-32.7.2-34 1.6zm64 23.4v17.5l-6.2 6.5-6.3 6.5H86.6c-10.1 0-10.6.1-12.3 2.5-5.7 8.3-9.1 9-9.5 2.2l-.3-4.7-5.6.3c-4.1.3-5.7 0-6-1-.2-.7-.3-11.8-.1-24.6l.3-23.2 28.2.2 28.2.3.1 17.5z"/><path d="M72.1 146.4c-.8.9-1.1 5-.9 11.7l.3 10.4 2.8.3c4.8.6 5.4-.9 5.5-11.6 0-5.3-.4-10.3-1-11-1.4-1.6-5.3-1.5-6.7.2zm19-.1c-.8 1-1.1 4.9-.9 11.8l.3 10.4h7v-23l-2.6-.3c-1.4-.2-3.1.3-3.8 1.1zm98.5-18.7c-.9.8-1.6 2.4-1.6 3.5s-.7 3.3-1.5 4.9c-1.3 2.5-1.5 7.4-1.3 29.7l.3 26.8 9 .5 9 .5.3 4.2c.3 4.7 1.8 5.5 8.7 4.8 3.3-.3 4.8-1.2 8.1-5l4.2-4.6 6.6.2 6.6.2 10.7-10 10.8-10 .3-22.3c.2-15.6-.1-22.7-.9-23.6-.9-1.1-7.4-1.4-34.5-1.4-28.9 0-33.5.2-34.8 1.6zm64.2 23.2.2 17.4-6.4 6.6-6.5 6.7-9.8-.2-9.8-.3-4.6 5c-5.9 6.5-7.7 6.5-8.1.2l-.3-4.7-5.6.3c-4.1.3-5.7 0-6-1-.2-.7-.3-11.8-.1-24.6l.3-23.2 28.2.2 28.2.3.3 17.3z"/><path d="M216.1 146.4c-.8.9-1.1 5-.9 11.7l.3 10.4 2.8.3c4.9.6 5.7-1.1 5.7-11.4 0-7.1-.4-9.6-1.6-10.8-1.9-2-4.8-2.1-6.3-.2zm19 0c-.8.9-1.1 5-.9 11.7l.3 10.4h7l.3-10.4c.3-10.7-.4-13.1-3.8-13.1-1 0-2.3.6-2.9 1.4zm98.5-18.8c-.9.8-1.6 2.4-1.6 3.5s-.7 3.3-1.5 4.9c-1.3 2.5-1.5 7.4-1.3 29.7l.3 26.8 9 .5 9 .5.3 4.1c.3 4.8 1.2 5.2 8.5 4.6 4.2-.4 5.2-.9 8.4-4.9l3.6-4.4 6.8.2 6.9.2 10.7-10 10.8-10 .3-22.3c.2-15.6-.1-22.7-.9-23.6-.9-1.1-7.4-1.4-34.5-1.4-28.9 0-33.5.2-34.8 1.6zm64 23.4.2 17.5-6.8 6.8-6.8 6.8-9.3-.5-9.3-.5-4.8 5c-2.7 2.8-5.4 4.9-6.1 4.6-.7-.2-1.4-2.3-1.7-4.8l-.5-4.4-5.7.3c-4.4.3-5.8.1-5.9-1-.3-5.8.3-46.4.7-47 .3-.5 13-.7 28.2-.6l27.7.3.1 17.5z"/><path d="M360.1 146.4c-.8.9-1.1 5-.9 11.7l.3 10.4 2.8.3c4.9.6 5.7-1.1 5.7-11.4 0-7.1-.4-9.6-1.6-10.8-1.9-2-4.8-2.1-6.3-.2zm19.1-.6c-.9.6-1.2 3.7-1 11.8l.3 10.9h7l.3-10.4c.3-10.6-.4-13.1-3.7-13.1-.9 0-2.2.4-2.9.8zm98.4-18.2c-.9.8-1.6 2.4-1.6 3.5s-.7 3.3-1.5 4.9c-1.3 2.5-1.5 7.4-1.3 29.7l.3 26.8 9.3.3 9.2.3v4.3c0 5.1 1.1 5.7 8.5 4.9 3.9-.5 5.1-1.2 8.2-4.9l3.5-4.4h14.3l10.8-10.1 10.7-10.1v-22.2c0-15.9-.3-22.5-1.2-23.4-.9-.9-9.9-1.2-34.4-1.2-28.9 0-33.5.2-34.8 1.6zm63.9 23.4v17.5l-6.2 6.5-6.2 6.5h-20.2l-4.3 4.7c-2.4 2.7-5.1 4.8-5.9 4.8-1.2 0-1.7-1.3-1.9-4.8l-.3-4.7-5.6.3c-4.1.3-5.7 0-6-1-.2-.7-.3-11.8-.1-24.6l.3-23.2 28.2.2 28.2.3V151z"/><path d="M504.1 146.4c-.8.9-1.1 5-.9 11.7l.3 10.4 2.8.3c4.8.6 5.4-.8 5.4-11.8.1-8.7-.2-10.2-1.7-11-2.6-1.4-4.6-1.2-5.9.4zm19 0c-.8.9-1.1 5-.9 11.7l.3 10.4h7l.3-10.4c.3-10.7-.4-13.1-3.8-13.1-1 0-2.3.6-2.9 1.4zm98.5-18.8c-.9.8-1.6 2.4-1.6 3.3 0 1-.7 3.5-1.5 5.5-1.3 3-1.5 8.2-1.3 29.9l.3 26.2 9 .5 9 .5.3 4.2c.3 4.6 1.7 5.4 8.7 4.8 3.2-.3 4.7-1.2 8.1-4.9l4.1-4.6h13.8l10.8-10.1 10.7-10.1v-22.4c0-21.1-.1-22.4-1.9-23.4-1.3-.6-14-1-34.5-1-28.2 0-32.7.2-34 1.6zm63.9 23.4.1 17.5-6.3 6.5-6.2 6.5h-10.5c-10.1 0-10.6.1-12.3 2.5-5.7 8.3-9.1 9-9.5 2.2l-.3-4.7-5.6.3c-4.1.3-5.7 0-6-1-.2-.7-.3-11.8-.1-24.6l.3-23.2 28.2.2 28.1.3.1 17.5z"/><path d="M648.1 146.4c-.8.9-1.1 5-.9 11.7l.3 10.4 2.8.3c4.9.6 5.7-1 5.7-11.7 0-6.2-.4-10.1-1.2-10.9-1.6-1.6-5.3-1.5-6.7.2zm19.1-.2c-.8.8-1.2 4.6-1.2 11.5 0 10.1 0 10.3 2.5 10.9 5.2 1.3 5.6.4 5.3-11.8-.3-11.2-.3-11.3-2.8-11.6-1.4-.2-3.1.3-3.8 1zm98.4-18.6c-.9.8-1.6 2.4-1.6 3.5s-.7 3.3-1.5 4.9c-1.3 2.5-1.5 7.4-1.3 29.7l.3 26.8 9 .5 9 .5.3 4.2c.3 3.7.6 4.2 3.3 4.8 5 1.1 9.1-.5 13.6-5.1 4.2-4.3 4.4-4.4 11-4.4h6.8l10.8-10.1 10.7-10.1v-22.4c0-21.1-.1-22.4-1.9-23.4-1.3-.6-14-1-34.5-1-28.2 0-32.7.2-34 1.6zm64 23.4.1 17.5-6.3 6.5-6.3 6.5h-10.5c-10.1 0-10.6.1-12.3 2.5-5.7 8.3-9.1 9-9.5 2.2l-.3-4.7-5.6.3c-4.1.3-5.7 0-6-1-.2-.7-.3-11.8-.1-24.6l.3-23.2 28.2.2 28.2.3.1 17.5z"/><path d="M792.1 146.4c-.8.9-1.1 5-.9 11.7l.3 10.4 2.8.3c4.8.6 5.5-.9 5.5-11.6 0-5.3-.4-10.3-1-11-1.4-1.6-5.3-1.5-6.7.2zm19-.1c-.8 1-1.1 4.9-.9 11.8l.3 10.4h7v-23l-2.6-.3c-1.4-.2-3.1.3-3.8 1.1zM0 201.5v3.5l18.8.2 18.7.3.1 17.5.1 17.5-6.3 6.5-6.3 6.5-10-.3-9.9-.3-2.6 3.4C.4 259.2 0 260.7 0 266.8c0 4 .3 7.2.8 7.2.4-.1 2.2-2.1 4-4.5l3.3-4.5h14.4l10.8-10.3 10.8-10.2-.3-23-.3-23-21.7-.3L0 198v3.5zm117.6-1.9c-.9.8-1.6 2.4-1.6 3.5s-.7 3.3-1.5 4.9c-1.3 2.5-1.5 7.4-1.3 29.7l.3 26.8 9.3.3 9.2.3v8.9h6.4c6.4 0 6.5 0 10.2-4.5l3.6-4.5h14.3l10.8-10.3 10.8-10.2-.1-22c0-15.8-.3-22.4-1.2-23.3-.9-.9-9.9-1.2-34.4-1.2-28.9 0-33.5.2-34.8 1.6zm63.7 23.8-.1 17.9-6 6-6 6-10.1-.2-10.1-.1-2.7 3.2c-7 8-8.7 8.5-9 2.7-.1-1.9-.2-4-.2-4.6-.1-.9-2-1.2-6.3-1-5.5.2-6.3 0-6.2-1.6 0-.9.1-11.8.2-24.2l.2-22.5 28.2.2 28.3.3-.2 17.9z"/><path d="M143.4 218.3c-.2.7-.3 6-.2 11.8l.3 10.4 2.8.3c4.9.6 5.7-1.1 5.7-11.4 0-7.1-.4-9.6-1.6-10.8-1.9-1.9-6.3-2.1-7-.3zm19.9-.7c-.9.4-1.3 3.7-1.3 11.5 0 10.8 0 10.9 2.5 11.5 5.2 1.3 5.6.4 5.3-11.8-.3-11.3-.3-11.3-2.8-11.5-1.4-.1-3.1.1-3.7.3zm98.3-18c-.9.8-1.6 2.4-1.6 3.5s-.7 3.3-1.5 4.9c-1.3 2.5-1.5 7.4-1.3 29.7l.3 26.8 9 .5 9 .5.3 4.2.3 4.3h6.4c6.3 0 6.4 0 10.1-4.5l3.6-4.5h14.3l10.8-10.3 10.8-10.2-.1-22c0-15.8-.3-22.4-1.2-23.3-.9-.9-9.9-1.2-34.4-1.2-28.9 0-33.5.2-34.8 1.6zm63.8 23.8-.2 17.9-6 6-6 6-10.1-.2-10-.2-2.8 3.2c-7 8.1-8.7 8.6-9 2.8-.1-1.9-.2-4-.2-4.7-.1-1-1.5-1.1-5.9-.6-4.6.5-6 .3-6.3-.7-.2-.8-.3-11.9-.1-24.7l.3-23.2 28.2.2 28.2.3-.1 17.9z"/><path d="M287.4 218.3c-.2.7-.3 6-.2 11.8l.3 10.4 2.8.3c4.8.6 5.5-.9 5.5-11.6 0-5.3-.5-10.3-1-11-1.4-1.6-6.7-1.6-7.4.1zm19.9-.7c-.9.4-1.3 3.7-1.3 11.5 0 10.8 0 10.9 2.5 11.5 5.2 1.3 5.6.4 5.3-11.8-.3-11.3-.3-11.3-2.8-11.5-1.4-.1-3.1.1-3.7.3zm98.3-18c-.9.8-1.6 2.4-1.6 3.5s-.7 3.3-1.5 4.9c-1.3 2.5-1.5 7.4-1.3 29.7l.3 26.8 9.3.3 9.2.3v8.9h6.3c6.2 0 6.4 0 10.1-4.5l3.9-4.5h13.9l10.9-10.1 10.9-10.2v-22.1c0-15.9-.3-22.5-1.2-23.4-.9-.9-9.9-1.2-34.4-1.2-28.9 0-33.5.2-34.8 1.6zm63.8 23.8-.2 17.8-6 6-5.9 6-10.2-.1c-9.8-.2-10.1-.1-12.3 2.6-7.3 8.7-9.3 9.2-9.3 2.2v-4.4H419c-6.1 0-6.5-.1-6.4-2.3 0-1.2.1-12.1.2-24.2l.2-22 28.3.2 28.2.3-.1 17.9z"/><path d="M432.2 217.8c-.9.6-1.2 3.7-1 11.8l.3 10.9 2.8.3c4.9.6 5.7-1.1 5.7-11.4 0-7.1-.4-9.6-1.6-10.8-1.7-1.7-4.2-2-6.2-.8zm19.1-.2c-.9.4-1.3 3.7-1.3 11.5 0 10.8 0 10.9 2.5 11.5 5.2 1.3 5.6.4 5.3-11.8-.3-11.3-.3-11.3-2.8-11.5-1.4-.1-3.1.1-3.7.3zm98.3-18c-.9.8-1.6 2.4-1.6 3.5s-.7 3.3-1.5 4.9c-1.3 2.5-1.5 7.4-1.3 29.7l.3 26.8 9.3.3 9.2.3v8.9h6.3c6.3 0 6.3 0 10.2-4.5l3.9-4.6 6.7.2 6.8.2L609 255l11-10.3-.2-23.1-.3-23.1-34.2-.3c-30-.2-34.3 0-35.7 1.4zm64.2 23.2.2 17.4-6.3 6.5-6.3 6.5-10-.1-10.1-.1-4.7 5.1c-2.5 2.8-5.2 4.9-5.9 4.6-.6-.2-1.2-2-1.3-4 0-2-.4-4-.8-4.4-.4-.5-3.3-.8-6.4-.8-5.3 0-5.7-.2-5.6-2.3 0-1.2.1-12.1.2-24.2l.2-22 28.3.2 28.2.3.3 17.3z"/><path d="M575.4 218.3c-.2.7-.3 6-.2 11.8l.3 10.4 2.8.3c4.8.6 5.4-.8 5.4-11.8.1-8.7-.2-10.2-1.7-11-2.6-1.4-6-1.2-6.6.3zm19.8-.1c-.8.8-1.2 4.6-1.2 11.5 0 10.1 0 10.3 2.5 10.9 5.2 1.3 5.6.4 5.3-11.8-.3-11.2-.3-11.3-2.8-11.6-1.4-.2-3.1.3-3.8 1zm98.4-18.6c-.9.8-1.6 2.4-1.6 3.5s-.7 3.3-1.5 4.9c-1.3 2.5-1.5 7.4-1.3 29.7l.3 26.8 9.3.3 9.2.3v8.9h6.4c6.4 0 6.5 0 10.2-4.5l3.6-4.5h14.3l10.8-10.3 10.8-10.2-.3-23-.3-23-34.2-.3c-30-.2-34.3 0-35.7 1.4zm64 23.4.1 17.5-6.3 6.5-6.3 6.5-10-.3c-9.9-.3-10-.3-12.3 2.4-7 8.4-9.2 9.2-9.5 3.3-.1-1.9-.2-4-.2-4.6-.1-.9-2-1.2-6.3-1-6 .2-6.3.1-6.2-2.1 0-1.2.1-12.1.2-24.2l.2-22 28.3.2 28.2.3.1 17.5z"/><path d="M719.4 218.3c-.2.7-.3 6-.2 11.8l.3 10.4 2.8.3c4.8.6 5.5-.9 5.5-11.6-.1-5.3-.5-10.3-1.1-11-1.3-1.6-6.6-1.6-7.3.1zm19.8-.1c-.8.8-1.2 4.6-1.2 11.5 0 10.1 0 10.3 2.5 10.9 5.2 1.3 5.6.4 5.3-11.8-.3-11.2-.3-11.3-2.8-11.6-1.4-.2-3.1.3-3.8 1zm98.4-18.6c-.9.8-1.6 2.4-1.6 3.5s-.7 3.3-1.5 4.9c-1.3 2.5-1.5 7.4-1.3 29.7l.3 26.8 9.3.3 9.2.3v8.9h6.4c6.4 0 6.5 0 10.2-4.5l3.6-4.5h14.4l5.4-5.5c3-3 6-5.5 6.7-5.5.9 0 1.3-1.6 1.3-5 0-2.9-.4-5-1.1-5-.6 0-3 2.1-5.4 4.7l-4.3 4.8-10.1-.2-10.1-.3-2.7 3.2c-7.3 8.3-8.8 8.6-8.8 1.7v-4.4H851c-5.6 0-6.5-.3-6.4-1.8 0-.9.1-11.8.2-24.2l.2-22.5h55v-7h-30.4c-26.4 0-30.7.2-32 1.6zm-818.3 18c-.9.4-1.3 3.7-1.3 11.5 0 10.8 0 10.9 2.5 11.5 5.2 1.3 5.6.4 5.3-11.8-.3-11.3-.3-11.3-2.8-11.5-1.4-.1-3.1.1-3.7.3z"/><path d="M863.4 218.3c-.2.7-.3 6-.2 11.8l.3 10.4 2.8.3c4.9.6 5.7-1 5.7-11.7 0-6.2-.4-10.1-1.2-10.9-1.6-1.6-6.7-1.5-7.4.1zm19.8-.5c-.9.6-1.2 3.7-1 11.8l.3 10.9h7v-23l-2.5-.3c-1.4-.1-3.1.2-3.8.6zm-882.5.9c-.4.3-.7 5.2-.7 10.9 0 9.5.1 10.2 2.1 10.7 2.7.7 4.9-.1 4.9-1.9.1-.8.1-5 .1-9.4s0-8.7-.1-9.5c0-1.5-5-2.2-6.3-.8zm45.1 52.5c-1 1-1.8 2.7-1.8 3.8 0 1.2-.7 3.4-1.5 5-1.3 2.5-1.5 7.4-1.3 29.7l.3 26.8 9.3.3 9.2.3v4.4c0 4.9-.1 4.9 8.5 4.5 3.4-.1 4.6-.9 8-4.6 4-4.4 4-4.4 11-4.5h7l10.8-10.2 10.7-10.2v-22.8c0-17.3-.3-22.9-1.2-23.2-.7-.3-16.1-.6-34.3-.7-30.3-.3-33.1-.2-34.7 1.4zm63.8 23.8v17.5l-6 6.2-5.9 6.3H77l-2.7 3.2c-7.3 8.3-8.5 8.6-9.3 1.7l-.5-4.4-5.6.3c-4 .2-5.8-.1-6-1-.2-.7-.3-11.8-.1-24.6l.3-23.2 28.2.2 28.2.3.1 17.5z"/><path d="M71.7 289.7c-.4.3-.7 5.2-.7 10.8 0 10.6.7 12.5 4.5 12.5 1.2 0 2.6-.5 3.3-1.2 1.6-1.6 1.6-20 0-21.6-1.3-1.3-6-1.6-7.1-.5zm19-.1c-.4.4-.7 5.6-.7 11.5 0 9.9.2 10.8 2 11.4 1.1.3 2.9.3 4 0 1.9-.6 2-1.3 1.8-11.8l-.3-11.2-3-.3c-1.7-.2-3.4 0-3.8.4zm243.1-18.4c-1 1-1.8 2.7-1.8 3.8 0 1.2-.7 3.4-1.5 5-1.3 2.5-1.5 7.4-1.3 29.7l.3 26.8 9.3.3 9.2.3v8.9h6.3c6.2 0 6.4 0 10.1-4.5l3.9-4.5h7.1l7.1-.1 10.8-10.3 10.7-10.2V271l-2.2-.5c-1.3-.3-16.7-.6-34.3-.8-29.3-.2-32.1-.1-33.7 1.5zm63.9 23.7.2 17.4-6.1 6.3-6.1 6.4H365l-2.7 3.2c-7.3 8.3-8.5 8.6-9.3 1.7l-.5-4.4-5.6.3c-4 .2-5.8-.1-6-1-.2-.7-.3-11.8-.1-24.6l.3-23.2 28.2.2 28.2.3.2 17.4z"/><path d="M359.4 290.3c-.2.7-.3 6-.2 11.8l.3 10.4 2.8.3c4.9.6 5.7-1 5.7-11.7 0-6.2-.4-10.1-1.2-10.9-1.6-1.6-6.7-1.5-7.4.1zm19.3-.7c-.4.4-.7 5.6-.7 11.5 0 10.8 0 10.9 2.5 11.5 4.8 1.2 5.6-.8 5.3-12.5l-.3-10.6-3-.3c-1.7-.2-3.4 0-3.8.4zm387.1-18.4c-1 1-1.8 2.7-1.8 3.8 0 1.2-.7 3.4-1.5 5-1.3 2.5-1.5 7.4-1.3 29.7l.3 26.8 9.3.3 9.2.3v4.4c0 4.9-.1 4.9 8.5 4.5 3.4-.1 4.6-.9 7.9-4.6l3.8-4.4h7.2l7.1-.1 10.8-10.2 10.7-10.2v-22.8c0-17.3-.3-22.9-1.2-23.2-.7-.3-16.1-.6-34.3-.7-30.3-.3-33.1-.2-34.7 1.4zm63.7 23.8.1 17.5-6 6.2-5.9 6.3h-10.4c-10 0-10.4.1-12.6 2.7-7.2 8.7-8.9 9.1-9.7 2.2l-.5-4.4-5.6.3c-4 .2-5.8-.1-6-1-.2-.7-.3-11.8-.1-24.6l.3-23.2 28.2.2 28.2.3V295z"/><path d="M791.7 289.7c-.4.3-.7 5.2-.7 10.8 0 10.6.7 12.5 4.5 12.5s4.5-1.9 4.5-12c0-6.1-.4-10-1.2-10.8-1.3-1.3-6-1.6-7.1-.5zm19-.1c-.4.4-.7 5.6-.7 11.5 0 9.9.2 10.8 2 11.4 1.1.3 2.9.3 4 0 1.9-.6 2-1.3 1.8-11.8l-.3-11.2-3-.3c-1.7-.2-3.4 0-3.8.4zm-621.1-18c-.9.8-1.6 2.4-1.6 3.5s-.7 3.3-1.5 4.9c-1.3 2.5-1.5 7.4-1.3 29.7l.3 26.8 9.3.3 9.2.3v8.9h6.3c6.2 0 6.4 0 10.1-4.5l3.9-4.5h7.1l7.1-.1 10.8-10.2 10.7-10.3-.2-22.9-.3-23-34.2-.3c-30-.2-34.3 0-35.7 1.4zm64.2 23.2.2 17.3-6.1 6.5-6.2 6.4h-10.4c-10 0-10.4.1-12.6 2.7-7.2 8.7-8.9 9.1-9.7 2.2l-.5-4.4-5.6.3c-4 .2-5.8-.1-6-1-.2-.7-.3-11.8-.1-24.6l.3-23.2 28.2.2 28.2.3.3 17.3z"/><path d="M215.7 289.7c-1.3 1.2-.8 20.8.5 22.1 1.6 1.6 5.3 1.5 6.5-.1 1.4-1.6 1.4-19.9.1-21.4-1.1-1.4-6-1.8-7.1-.6zm19-.1c-.4.4-.7 5.6-.7 11.5 0 10.8 0 10.9 2.5 11.5 4.8 1.2 5.6-.8 5.3-12.5l-.3-10.6-3-.3c-1.7-.2-3.4 0-3.8.4zm242.4-17.4c-.4 1.3-1.4 3.9-2.2 5.8-1.1 2.7-1.4 10-1.4 31v27.5l9.3.3 9.2.3v4.3c0 5 1.1 5.7 8.3 4.9 3.8-.5 5.1-1.2 8.2-4.9l3.8-4.4h7.1l7.1-.1 10.8-10.2 10.7-10.2-.2-23-.3-23-34.8-.3-34.7-.2-.9 2.2zm64.4 22.8v17.5l-5.9 6.2-5.9 6.3H509l-2.7 3.2c-7 8-8.7 8.5-9 2.7-.1-1.9-.2-4-.2-4.7-.1-1.1-1.4-1.2-6-.7-4.4.5-5.9.3-6.2-.7-.2-.7-.3-11.8-.1-24.6l.3-23.2 28.2.2 28.2.3V295z"/><path d="M503.7 289.7c-.4.3-.7 5.5-.7 11.4V312l2.7.6c4.9 1.3 5.8-.3 6.1-11.1.2-6.3-.1-10.2-.9-11.1-1.2-1.4-6-1.9-7.2-.7zm19-.1c-.4.4-.7 5.6-.7 11.5 0 9.9.2 10.8 2 11.4 1.1.3 2.9.3 4 0 1.9-.6 2-1.3 1.8-11.8l-.3-11.2-3-.3c-1.7-.2-3.4 0-3.8.4zm98.4-17.4c-.4 1.3-1.4 3.9-2.2 5.8-1.1 2.7-1.4 10-1.4 31v27.5l9.3.3 9.2.3v8.9h6.3c6.2 0 6.4 0 10.1-4.5l3.9-4.5h7.1l7.1-.1 10.8-10.2 10.7-10.3v-22c0-15.8-.3-22.3-1.2-23.2-.9-.9-10-1.2-35-1.2H622l-.9 2.2zm64.4 22.8.1 17.5-6 6.2-5.9 6.3h-10.4c-10 0-10.4.1-12.6 2.7-7.2 8.7-8.9 9.1-9.7 2.2l-.5-4.4-5.6.3c-4 .2-5.8-.1-6-1-.2-.7-.3-11.8-.1-24.6l.3-23.2 28.2.2 28.2.3V295z"/><path d="M647.7 289.7c-.4.3-.7 5.5-.7 11.4V312l2.7.6c4.9 1.3 5.8-.3 5.9-11.2.1-5.4-.3-10.5-.9-11.2-1-1.3-5.9-1.7-7-.5zm19-.1c-.4.4-.7 5.6-.7 11.5 0 9.9.2 10.8 2 11.4 1.1.3 2.9.3 4 0 1.9-.6 2-1.3 1.8-11.8l-.3-11.2-3-.3c-1.7-.2-3.4 0-3.8.4zM5.8 341.8l-5.8.3v6.9l18.7.2 18.8.3v17.4l.1 17.5-5.9 6.3-5.9 6.3H15.7c-9.6 0-10.2.1-12.9 2.7-2.6 2.5-2.8 3.2-2.8 10.7l.1 8.1 4.2-4.8 4.2-4.7h7l7-.1 10.8-10.4L44 388v-22.5c0-17.2-.3-22.7-1.2-23-1.7-.5-29.7-1.1-37-.7zm112.1 1c-1.1.7-1.9 2.4-1.9 3.8s-.7 3.8-1.5 5.4c-1.3 2.5-1.5 7.4-1.3 29.7l.3 26.8 9.3.3 9.2.3v8.9h6.3c6.1 0 6.2-.1 10-4.5l3.9-4.5h14.3l10.8-10.7 10.7-10.6v-22.4c0-17-.3-22.5-1.2-22.8-.7-.3-16.1-.6-34.2-.7-25.8-.2-33.3 0-34.7 1zm63.5 24.2.1 17.5-5.9 6.2-5.8 6.3H149l-2.7 3.2c-7.3 8.3-8.8 8.6-8.8 1.7v-4.4l-6.1.3c-4.4.2-6.3-.1-6.5-1-.2-.7-.3-11.8-.1-24.6l.3-23.2 28.1.2 28.1.3.1 17.5z"/><path d="M143.7 361.7c-.4.3-.7 5.5-.7 11.5 0 11.9.6 13 5.9 11.2 2.6-.9 2.6-1.1 2.7-10.9.1-5.5-.3-10.6-.8-11.3-1.1-1.3-6-1.7-7.1-.5zm19-.1c-.4.4-.7 5.3-.7 10.9 0 11.3.9 13.2 5.5 12.1l2.6-.7-.3-11.2-.3-11.2-3-.3c-1.7-.2-3.4 0-3.8.4zm99.2-18.3c-1 1-1.9 2.7-1.9 3.8 0 1.1-.7 3.3-1.5 4.9-1.3 2.5-1.5 7.4-1.3 29.7l.3 26.8 9.3.3 9.2.3v8.9h6.3c6.2 0 6.4 0 10.1-4.5l3.9-4.5h14.2l10.8-10.8 10.7-10.7v-22.3c0-16.9-.3-22.4-1.2-22.7-.7-.3-16.1-.6-34.1-.8-30.4-.2-33-.1-34.8 1.6zm63.6 23.7v17.5l-5.9 6.2-5.8 6.3h-10.4c-11.3 0-10.5-.3-16.6 6.9-3.3 4-5.2 3.6-5.5-1-.1-1.9-.2-4-.2-4.7-.1-1.1-1.4-1.2-6-.7-4.4.5-5.9.3-6.2-.7-.2-.7-.3-11.8-.1-24.6l.3-23.2 28.2.2 28.2.3V367z"/><path d="M287.7 361.7c-.4.3-.7 5.2-.7 10.8 0 11.6 1 13.6 5.8 11.9 2.7-.9 2.7-1.1 2.9-10.9.1-5.8-.3-10.5-.9-11.2-1.1-1.4-6-1.8-7.1-.6zm18.8.6c-.3.7-.4 5.8-.3 11.2.2 8 .6 10 2.1 10.9 1.2.8 2.2.8 3.5 0 1.4-1 1.7-2.7 1.7-12v-10.9l-3.3-.3c-2-.2-3.4.2-3.7 1.1zm99.4-19.5c-1.1.7-1.9 2.4-1.9 3.8s-.7 3.8-1.5 5.4c-1.3 2.5-1.5 7.4-1.3 29.7l.3 26.8 9.3.3 9.2.3v8.9h6.3c6.1 0 6.2-.1 10-4.5l3.9-4.5h14.3l10.8-10.8 10.7-10.7v-22.3c0-16.9-.3-22.4-1.2-22.7-.7-.3-16.1-.6-34.2-.7-25.8-.2-33.3 0-34.7 1zm63.5 24.2.1 17.5-5.9 6.2-5.8 6.3h-10.4c-11.3 0-10.5-.3-16.6 6.9-3.3 4-5.2 3.6-5.5-1-.1-1.9-.2-4-.2-4.7-.1-1.1-1.4-1.2-6-.7-4.4.5-5.9.3-6.2-.7-.2-.7-.3-11.8-.1-24.6l.3-23.2 28.1.2 28.2.3V367z"/><path d="M431.7 361.7c-.4.3-.7 5.5-.7 11.4 0 8.8.3 10.8 1.6 11.3 2.5 1 4.2.7 5.8-1 2-1.9 2.3-19.3.4-21.2-1.3-1.3-6-1.6-7.1-.5zm19-.1c-.4.4-.7 5.3-.7 10.9 0 11.3.9 13.2 5.5 12.1l2.6-.7-.3-11.2-.3-11.2-3-.3c-1.7-.2-3.4 0-3.8.4zm99.2-18.8c-1.1.7-1.9 2.4-1.9 3.8s-.7 3.8-1.5 5.4c-1.3 2.5-1.5 7.4-1.3 29.7l.3 26.8 9.3.3 9.2.3v8.9h6.3c6.1 0 6.2-.1 10-4.5l3.9-4.5h14.3l10.8-10.6 10.7-10.5v-22.5c0-17.1-.3-22.6-1.2-22.9-.7-.3-16.1-.6-34.2-.7-25.8-.2-33.3 0-34.7 1zm63.9 23.9.3 17.2-6.2 6.5-6.1 6.6h-10.4c-11.3 0-10.5-.3-16.6 6.9-3.3 4-5.2 3.6-5.5-1-.1-1.9-.2-4-.2-4.7-.1-1.1-1.4-1.2-6-.7-4.4.5-5.9.3-6.2-.7-.2-.7-.3-11.8-.1-24.6l.3-23.2 28.2.2 28.2.3.3 17.2z"/><path d="M575.7 361.7c-.4.3-.7 5.2-.7 10.8 0 11.6 1 13.6 5.8 11.9 2.7-.9 2.7-1.1 3-10.8.2-6.4-.1-10.3-.9-11.2-1.2-1.4-6-1.9-7.2-.7zm19.5.1c-.9.6-1.2 3.6-1 11.2.3 8.5.6 10.5 2.1 11.4 1.2.8 2.2.8 3.5 0 1.4-1 1.7-2.7 1.7-12 0-10.9 0-10.9-2.5-11.2-1.4-.1-3.1.2-3.8.6zm98.6-18.6c-1 1-1.8 2.7-1.8 3.8 0 1.2-.7 3.4-1.5 5-1.3 2.5-1.5 7.4-1.3 29.7l.3 26.8 9.3.3 9.2.3v8.9h6.3c6.1 0 6.2-.1 10-4.5l3.9-4.5h7.1l7.2-.1 10.8-10.4 10.7-10.4v-22.6c0-17.1-.3-22.7-1.2-23-.7-.3-16.1-.6-34.3-.8-30.3-.2-33.1-.1-34.7 1.5zm63.7 23.7.1 17.5-5.9 6.3-5.9 6.3h-10.5c-10.1 0-10.5.1-13.1 2.8-1.5 1.5-3.1 3.6-3.7 4.6-.5.9-1.9 1.8-3 1.9-1.7.2-2-.4-2-4.3v-4.5l-6.1.3c-4.4.2-6.3-.1-6.5-1-.2-.7-.3-11.8-.1-24.6l.3-23.2 28.2.2 28.2.3v17.4z"/><path d="M719.4 362.3c-.2.7-.3 6-.2 11.8.3 10.4.3 10.4 2.9 10.7 4.7.5 5.9-1.9 5.9-12.2 0-5.8-.4-9.6-1.2-10.4-1.6-1.6-6.7-1.5-7.4.1zm19.3-.7c-.4.4-.7 5.4-.7 11.1 0 10 .1 10.4 2.5 11.5 1.9.8 2.8.8 4-.2 1.3-1.1 1.5-3.3 1.3-11.9l-.3-10.6-3-.3c-1.7-.2-3.4 0-3.8.4zm99.1-18.4c-1 1-1.8 2.7-1.8 3.8 0 1.2-.7 3.4-1.5 5-1.3 2.5-1.5 7.4-1.3 29.7l.3 26.8 9.3.3 9.2.3v8.9h6.3c6.1 0 6.2-.1 10-4.5l3.9-4.5h14.5l5.2-5.5c2.9-3 5.9-5.5 6.7-5.5 1 0 1.4-1.3 1.4-5 0-6.4-1.5-6.5-6.4-.5l-3.7 4.5H869l-2.7 3.2c-7.3 8.3-8.8 8.6-8.8 1.7v-4.4l-6.1.3c-4.4.2-6.3-.1-6.5-1-.2-.7-.3-11.8-.1-24.6l.3-23.2H900v-7.5h-30.2c-27.5 0-30.5.2-32 1.7zM1.2 361.8c-.9.6-1.2 3.6-1 11.3l.3 10.4 3.3.3 3.2.3.1-9.3c.2-11.1 0-12.1-1.4-13-1.5-1-2.9-1-4.5 0zm18.1-.2c-.9.4-1.3 3.6-1.3 11 0 10.1.1 10.5 2.5 11.6 1.9.8 2.8.8 4-.2 1.3-1.1 1.5-3.3 1.3-11.9-.3-10.5-.3-10.6-2.8-10.8-1.4-.1-3.1.1-3.7.3z"/><path d="M863.7 361.7c-.4.3-.7 5.5-.7 11.4 0 10.6 0 10.9 2.4 11.5 1.3.3 3.3.1 4.4-.5 1.9-1 2.1-2.1 2.1-10.8 0-5.4-.5-10.4-1.1-11-1.1-1.4-6-1.8-7.1-.6zm19-.1c-.4.4-.7 5.6-.7 11.5 0 9.9.2 10.8 2 11.4 1.1.3 2.9.3 4 0 1.9-.6 2-1.3 1.8-11.8l-.3-11.2-3-.3c-1.7-.2-3.4 0-3.8.4zm-837 53.2c-1 1-1.7 2.9-1.7 4.1 0 1.2-.7 3.5-1.5 5.1-1.3 2.5-1.5 7.4-1.3 29.7l.3 26.8 9.3.3 9.2.3v8.9h6.1c6 0 6.2-.1 10.1-4.5l4-4.5h14.3l10.8-10.8 10.7-10.8-.2-22.4-.3-22.5-4.5-.7c-2.5-.3-17.8-.7-34.1-.7-27.5-.1-29.7 0-31.2 1.7zm63.9 24 .1 17.2-6 6.5-6 6.5H76.8l-4.8 5.1c-5.5 5.9-7.3 5.7-6.8-.5l.3-4.1h-5.7c-3.1 0-6-.5-6.5-1-.4-.6-.7-11.5-.5-24.3l.3-23.2 28.2.2 28.2.3.1 17.3z"/><path d="M71.7 433.7c-.4.3-.7 5.3-.7 10.9 0 9.2.2 10.4 1.9 11.4 2.7 1.4 3.7 1.3 5.5-.6 1.2-1.2 1.6-3.7 1.6-10.4 0-4.9-.3-9.5-.6-10.4-.6-1.6-6.4-2.3-7.7-.9zm19-.1c-.4.4-.7 5.4-.7 11 0 9.3.2 10.4 2 11.4 1.4.8 2.6.8 4 0 1.9-1 2-1.9 1.8-11.8l-.3-10.7-3-.3c-1.7-.2-3.4 0-3.8.4zm99-18.8c-1 1-1.7 2.9-1.7 4.1 0 1.2-.7 3.5-1.5 5.1-1.3 2.5-1.5 7.4-1.3 29.7l.3 26.8 9.3.3 9.2.3v8.9h6.1c6 0 6.2-.1 10.1-4.5l4-4.5h14.3l10.8-10.8 10.7-10.8-.2-22.4-.3-22.5-3-.6c-1.6-.4-17-.7-34.1-.8-28.9-.1-31.2 0-32.7 1.7zm64.1 23.8.2 17-6.3 6.7-6.3 6.7h-21.3l-2.8 3.7c-5.6 7.5-7.8 7.9-7.8 1.2v-4.4h-5.7c-3.1 0-6.1-.5-6.5-1-.4-.6-.7-11.5-.5-24.3l.3-23.2 28.2.2 28.2.3.3 17.1z"/><path d="M215.7 433.6c-.4.4-.7 5.4-.7 11 0 9.4.2 10.4 2 11.4 2.8 1.5 5.9.4 6.4-2.3.3-1.2.4-6.3.3-11.2l-.2-9-3.5-.3c-2-.2-3.9 0-4.3.4zm19 0c-.4.4-.7 5.4-.7 11 0 9.3.2 10.4 2 11.4 1.4.8 2.6.8 4 0 1.9-1 2-1.9 1.8-11.8l-.3-10.7-3-.3c-1.7-.2-3.4 0-3.8.4zm99-18.8c-1 1-1.7 2.6-1.7 3.6 0 .9-.7 3-1.5 4.6-1.3 2.5-1.5 7.4-1.3 30.2l.3 27.3 9.5.5 9.5.5-.3 4.2-.4 4.3h6.2c6.1 0 6.3-.1 10.2-4.5l4-4.5h14.3l10.8-10.8 10.7-10.8-.2-22.4-.3-22.5-3-.6c-1.6-.4-17-.7-34.1-.8-28.9-.1-31.2 0-32.7 1.7zm64.1 23.8.2 17.1-6.2 6.6-6.3 6.7h-21.4l-3.7 4.5c-2 2.6-4.5 4.5-5.6 4.5-1.7 0-1.9-.6-1.6-4.3l.3-4.2h-5.7c-3.1 0-6-.5-6.5-1-.4-.6-.7-11.5-.5-24.3l.3-23.2 28.2.2 28.2.3.3 17.1z"/><path d="M359.7 433.6c-.4.4-.7 5.4-.7 11 0 9.4.2 10.4 2 11.4 2.8 1.5 5.9.4 6.5-2.3.3-1.2.5-6.3.3-11.2l-.3-9-3.5-.3c-2-.2-3.9 0-4.3.4zm19 0c-.4.4-.7 5.4-.7 11 0 9.3.2 10.4 2 11.4 1.4.8 2.6.8 4 0 1.9-1 2-1.9 1.8-11.8l-.3-10.7-3-.3c-1.7-.2-3.4 0-3.8.4zm98.9-18.4c-.9 1.2-1.6 3.1-1.6 4.1 0 1-.7 3.1-1.5 4.7-1.3 2.5-1.5 7.4-1.3 29.7l.3 26.8 9.3.3 9.2.3v8.9h6.1c6 0 6.2-.1 10.1-4.5l4-4.5h14.3l10.8-10.8 10.7-10.8-.2-22.4-.3-22.5-3-.6c-1.6-.4-17-.7-34.2-.8-31.2-.1-31.2-.1-32.7 2.1zm63.9 23.8v17.4l-6 6.3-6.1 6.3h-20.9l-4.7 5.1c-5.3 5.8-7.1 5.7-6.6-.5l.3-4.1h-5.7c-3.1 0-6.1-.5-6.5-1-.4-.6-.7-11.5-.5-24.3l.3-23.2 28.2.2 28.2.3V439z"/><path d="M503.7 433.7c-.4.3-.7 5.3-.7 10.9 0 9.4.2 10.4 2 11.4 2 1.1 5.9.6 6.1-.8.5-2.2.7-19 .3-20.5-.4-1.2-1.5-1.7-3.8-1.7-1.8 0-3.6.3-3.9.7zm19-.1c-.4.4-.7 5.4-.7 11 0 9.3.2 10.4 2 11.4 1.4.8 2.6.8 4 0 1.9-1 2-1.9 1.8-11.8l-.3-10.7-3-.3c-1.7-.2-3.4 0-3.8.4zm99-18.8c-1 1-1.7 2.9-1.7 4.1 0 1.2-.7 3.5-1.5 5.1-1.3 2.5-1.5 7.4-1.3 29.7l.3 26.8 9.3.3 9.2.3v8.9h6.1c6 0 6.2-.1 10.1-4.5l4-4.5h14.3l10.8-10.8 10.7-10.8-.2-22.4-.3-22.5-3-.6c-1.6-.4-17-.7-34.1-.8-28.9-.1-31.2 0-32.7 1.7zm63.8 24v17.4l-6 6.4-6.1 6.4h-20.6l-4.8 5.1c-5.5 5.9-7.3 5.7-6.8-.5l.3-4.1-6.2.2c-4 .1-6.3-.3-6.5-1-.2-.7-.2-11.7 0-24.5l.3-23.2 28.2.2 28.2.3v17.3z"/><path d="M647.7 433.6c-.4.4-.7 5.4-.7 11 0 9.4.2 10.4 2 11.4 2.6 1.4 5.8.5 6.3-1.8.3-.9.4-6 .3-11.2l-.1-9.5-3.5-.3c-2-.2-3.9 0-4.3.4zm19 0c-.4.4-.7 5.4-.7 11 0 9.3.2 10.4 2 11.4 1.4.8 2.6.8 4 0 1.9-1 2-1.9 1.8-11.8l-.3-10.7-3-.3c-1.7-.2-3.4 0-3.8.4zm99-18.8c-1 1-1.7 2.9-1.7 4.1 0 1.2-.7 3.5-1.5 5.1-1.3 2.5-1.5 7.4-1.3 29.7l.3 26.8 9.3.3 9.2.3v8.9h6.1c6 0 6.2-.1 10.1-4.5l4-4.5h14.3l10.8-10.8 10.7-10.8-.2-22.4-.3-22.5-3-.6c-1.6-.4-17-.7-34.1-.8-28.9-.1-31.2 0-32.7 1.7zm63.9 23.2c0 9.1-.4 17.3-.9 18.4-.5 1-3.2 4.3-6 7.2l-5.1 5.4h-20.8l-4.8 5.1c-5.5 5.9-7.3 5.7-6.8-.5l.3-4.1-6.2.2c-4.1.2-6.2-.1-6.5-1-.1-.6-.2-11.7 0-24.5l.3-23.2 28.2.2 28.2.3.1 16.5z"/><path d="M791.7 433.7c-.4.3-.7 5.3-.7 10.9 0 9.2.2 10.4 1.9 11.4 2.7 1.4 3.7 1.3 5.5-.6 1.2-1.2 1.6-3.7 1.6-10.4 0-4.9-.3-9.5-.6-10.4-.6-1.6-6.4-2.3-7.7-.9zm19-.1c-.4.4-.7 5.4-.7 11 0 9.3.2 10.4 2 11.4 1.4.8 2.6.8 4 0 1.9-1 2-1.9 1.8-11.8l-.3-10.7-3-.3c-1.7-.2-3.4 0-3.8.4zM0 489v4l18.8.2 18.7.3.1 17.2.1 17.1-6.1 6.6-6.2 6.6H15.3c-9.8 0-10.3.1-12.8 2.7-2.2 2.5-2.5 3.6-2.5 10.8v8l4.1-4.8 4.1-4.7h14l10.9-10.7L44 531.7v-22.2c0-15.8-.3-22.4-1.2-23.3-.9-.9-7.2-1.2-22-1.2H0v4zm117.6-1.8c-.9 1.2-1.6 3.1-1.6 4.1 0 1-.7 3.1-1.5 4.7-1.3 2.5-1.5 7.4-1.3 29.7l.3 26.8 9.3.3 9.2.3v8.9h6.3c6.1 0 6.2-.1 10-4.5l3.9-4.5h14l10.9-10.7 10.9-10.7v-22.1c0-15.9-.3-22.4-1.2-23.3-.9-.9-9.9-1.2-34.4-1.2-33.3 0-33.3 0-34.8 2.2zm63.9 23.6v17.3l-6.1 6.4-6.2 6.5h-21.1l-3.7 4.5c-2 2.6-4.5 4.5-5.6 4.5-1.7 0-1.9-.6-1.6-4.3l.3-4.2-6.2.2c-4 .1-6.3-.3-6.5-1-.2-.7-.2-11.7 0-24.5l.3-23.2 28.2.2 28.1.3.1 17.3z"/><path d="M143.5 506.3c-.3.7-.4 5.8-.3 11.3l.3 9.9 3.7.3c4.5.4 4.7-.2 4.5-12.8l-.2-9.5-3.8-.3c-2.5-.2-3.9.1-4.2 1.1zm18.9 0c-.2.7-.3 5.8-.2 11.3l.3 9.9h7l.3-11.3.3-11.2h-3.6c-2 0-3.8.6-4.1 1.3zm99.3-19.5c-1 1-1.7 3-1.7 4.3 0 1.4-.7 3.4-1.5 4.6-1.3 1.8-1.5 6.4-1.3 29.5l.3 27.3 9.3.3 9.2.3v8.9h6c5.8 0 6.1-.1 10.1-4.5l4.2-4.5h13.9l10.9-10.7 10.9-10.7v-22.3c0-21-.1-22.3-1.9-23.3-1.3-.6-14-1-34.4-1-30.1 0-32.5.1-34 1.8zm63.8 24v17.3l-6.1 6.4-6.2 6.5h-20.7l-4.7 5.1c-5.3 5.8-7.1 5.7-6.6-.5l.3-4.1-6.2.2c-4.1.2-6.2-.1-6.5-1-.1-.6-.2-11.7 0-24.5l.3-23.2 28.2.2 28.1.3.1 17.3z"/><path d="M287.5 506.3c-.3.7-.4 5.8-.3 11.3l.3 9.9 3.7.3c4.6.4 4.9-.6 4.6-13.3l-.3-9-3.8-.3c-2.5-.2-3.9.1-4.2 1.1zm19.2-.7c-.4.4-.7 5.4-.7 11 0 9.3.2 10.4 2 11.4 1.4.8 2.6.8 4 0 1.9-1 2-1.9 1.8-11.8l-.3-10.7-3-.3c-1.7-.2-3.4 0-3.8.4zm99-18.8c-1 1-1.7 2.9-1.7 4.1 0 1.2-.7 3.5-1.5 5.1-1.3 2.5-1.5 7.4-1.3 29.7l.3 26.8 8 .2c4.4.1 8.6.2 9.3.2.8.1 1.2 1.7 1.2 4.6v4.5h6.1c6 0 6.2-.1 10.1-4.5l4-4.5h14.1l10.9-10.7 10.8-10.7v-22.3c0-21-.1-22.3-1.9-23.3-1.3-.6-14-1-34.4-1-30.1 0-32.5.1-34 1.8zm63.7 24-.1 17.3-5.9 6.5-5.9 6.4h-21l-4.7 5.1c-5.3 5.8-7.1 5.7-6.6-.5l.3-4.1h-5.7c-3.1 0-6-.5-6.5-1-.4-.6-.7-11.5-.5-24.3l.3-23.2 28.2.2 28.1.3v17.3z"/><path d="M431.7 505.6c-.4.4-.7 5.6-.7 11.6V528h4c4.8 0 5.1-.7 4.7-13.5l-.2-9-3.5-.3c-2-.2-3.9 0-4.3.4zm18.8.7c-.3.7-.4 5.8-.3 11.3l.3 9.9h7v-22l-3.3-.3c-2-.2-3.4.2-3.7 1.1zm99.2-19.5c-1 1-1.7 2.9-1.7 4.1 0 1.2-.7 3.5-1.5 5.1-1.3 2.5-1.5 7.4-1.3 29.7l.3 26.8 9.3.3 9.2.3v8.9h5.8c5.5 0 6-.2 10.2-4.5 4.4-4.5 4.5-4.5 11.3-4.5h6.9l10.9-10.7 10.9-10.6v-22.2c0-15.8-.3-22.4-1.2-23.3-.9-.9-9.9-1.2-34.3-1.2-30.9 0-33.3.1-34.8 1.8zm64.1 23.7.2 17.1-6.5 6.7-6.5 6.7h-20.5l-4.7 5.1c-5.3 5.8-7.1 5.7-6.6-.5l.3-4.1-6.2.2c-4.1.2-6.2-.1-6.5-1-.1-.6-.2-11.7 0-24.5l.3-23.2 28.2.2 28.2.3.3 17z"/><path d="M575.7 505.6c-.4.4-.7 5.3-.7 10.9 0 11.3.8 13.1 5.4 11.9 3.3-.8 3.8-2.7 3.4-13.9l-.3-9-3.5-.3c-2-.2-3.9 0-4.3.4zm19 .1c-.4.3-.7 5.3-.7 10.9 0 9.3.2 10.4 2 11.4 1.4.8 2.6.8 4 0 1.8-1 2-2.1 2-12v-11h-3.3c-1.9 0-3.7.3-4 .7zm99.5-19.5c-.6.7-2 4.1-3.1 7.6-2 5.8-2.1 8-1.9 32.5l.3 26.2 9.2.3 9.2.3.3 4.2.3 4.2 5.8.3c5.8.3 5.9.3 9.9-4.2l4-4.6h14l10.9-10.7 10.9-10.6v-22.2c0-15.8-.3-22.4-1.2-23.3-1.8-1.8-67.1-1.7-68.6 0zm63.4 24.5.1 17.1-6.2 6.6-6.1 6.6h-21.3l-3.7 4.5c-2 2.6-4.5 4.5-5.6 4.5-1.7 0-1.9-.6-1.6-4.3l.3-4.2h-5.7c-3.1 0-6-.5-6.5-1-.4-.6-.7-11.5-.5-24.3l.3-23.2 28.2.2 28.2.3.1 17.2z"/><path d="M719.7 505.6c-.4.4-.7 5.3-.7 10.9 0 11.3.8 13.1 5.4 11.9 3.3-.8 3.8-2.7 3.4-13.9l-.3-9-3.5-.3c-2-.2-3.9 0-4.3.4zm19 0c-.4.4-.7 5.4-.7 11 0 8.8.3 10.5 1.8 11.2 1 .6 2.7.6 4 .1 2.2-.8 2.3-1.2 2-11.6l-.3-10.8-3-.3c-1.7-.2-3.4 0-3.8.4zm98.9-18.4c-.9 1.2-1.6 3.1-1.6 4.1 0 1-.7 3.1-1.5 4.7-1.3 2.5-1.5 7.4-1.3 29.7l.3 26.8 8 .2c4.4.1 8.6.2 9.3.2.8.1 1.2 1.7 1.2 4.6v4.5h6.1c6 0 6.2-.1 10.1-4.5l4-4.5h14l5.7-6c3.2-3.3 6.3-6 6.9-6 .8 0 1.2-1.7 1.2-4.5 0-3.2-.4-4.5-1.4-4.5-.8 0-3.1 2-5.2 4.5l-3.6 4.5h-21.6l-2.6 3.2c-1.5 1.8-3.1 3.9-3.7 4.5-.5.7-1.9 1.3-3 1.3-1.8 0-2-.5-1.7-4.3l.3-4.2-6.2.2c-4 .1-6.3-.3-6.5-1-.2-.7-.2-11.7 0-24.5l.3-23.2H900v-8h-30.4c-30.4 0-30.5 0-32 2.2zM1.3 505.7c-.9.3-1.3 3.5-1.3 10.9 0 10.3 0 10.4 2.6 11 1.4.4 3 .2 3.6-.4 1.2-1.2 1.5-19.3.4-21.1-.7-1.1-3.1-1.3-5.3-.4zm17.2.6c-.3.7-.4 5.8-.3 11.3l.3 9.9h7v-22l-3.3-.3c-2-.2-3.4.2-3.7 1.1z"/><path d="M863.7 505.6c-.4.4-.7 5.4-.7 11 0 9 .2 10.5 1.8 11.3 2.4 1.3 6 .3 6.6-1.8.2-.9.3-5.9.2-11.1l-.1-9.5-3.5-.3c-2-.2-3.9 0-4.3.4zm18.7.7c-.2.7-.3 5.8-.2 11.3l.3 9.9h7l.3-11.3.3-11.2h-3.6c-2 0-3.8.6-4.1 1.3zM45.7 558.8c-1 1-1.7 2.8-1.7 3.9s-.7 3.4-1.5 4.9c-1.2 2.4-1.5 7.7-1.5 28.1 0 13.8.3 25.8.6 26.7.7 1.9 6.4 2.2 8.2.4 1.4-1.4 8-1.2 9.8.3 1.4 1.1 18 .7 22.7-.6 1.7-.5 4.4-.3 6.7.5 3.7 1.2 4.1 1.1 7.7-1.6 2.1-1.6 7.3-6.2 11.6-10.3l7.7-7.4v-22.2c0-15.8-.3-22.4-1.2-23.3-.9-.9-9.9-1.2-34.3-1.2-30.9 0-33.3.1-34.8 1.8zm63.8 24.1v17.3l-6.4 6.4-6.4 6.4H76.4l-4.3 5c-5.6 6.5-7.1 6.5-7.1-.1v-5.1l-6.2.4c-6.3.3-6.3.3-6.2-2.5 0-1.5.1-12.4.2-24.2L53 565l28.3.2 28.2.3v17.4z"/><path d="M71.5 578.3c-.3.7-.4 5.8-.3 11.3l.3 9.9 2.8.3c4.9.6 5.5-.9 5.4-12.1l-.2-10.2-3.8-.3c-2.5-.2-3.9.1-4.2 1.1zm19 0c-.3.7-.4 5.8-.3 11.3l.3 9.9h7v-22l-3.3-.3c-2-.2-3.4.2-3.7 1.1zm99.2-19.5c-1 1-1.7 2.7-1.7 3.8-.1 1-.7 3-1.5 4.4-1.1 2-1.4 8-1.5 29.7V624h3.7c2 0 4.4-.7 5.2-1.4 1.3-1.2 2.4-1.3 5.6-.4 5.7 1.6 22.5 2.2 23.8.9 1.4-1.4 6.3-1.4 10.3.1 3 1 3.6.9 7.1-1.7 2.1-1.6 7.3-6.2 11.6-10.4l7.7-7.5v-21.7c0-12-.3-22.4-.6-23.3-.5-1.4-4.5-1.6-34.4-1.6-31.4 0-33.8.1-35.3 1.8zm64.1 23.7.2 17-6.5 6.7-6.6 6.8h-20.4l-4.7 5.1c-2.6 2.8-5.1 4.8-5.7 4.4-.6-.3-1.1-2.7-1.1-5.2v-4.5l-6.2.4-6.3.3.1-3.3c0-1.7.1-12.7.2-24.2l.2-21 28.3.2 28.2.3.3 17z"/><path d="M215.5 578.3c-.3.7-.4 5.8-.3 11.3l.3 9.9 2.8.3c4.9.6 5.6-.9 5.4-12.1l-.2-10.2-3.8-.3c-2.5-.2-3.9.1-4.2 1.1zm19.2-.7c-.4.4-.7 5.1-.7 10.4 0 10.5.8 12.4 5.2 11.8 2.2-.3 2.3-.6 2.3-11.3v-11l-3-.3c-1.7-.2-3.4 0-3.8.4zm99-18.8c-1 1-1.7 2.7-1.7 3.8-.1 1-.7 3-1.5 4.4-1.1 2-1.4 8-1.5 29.7V624h4c2.2 0 4-.4 4-.9 0-1.9 3.8-2.1 8.1-.6 5 1.7 21.4 2.1 22.4.5.8-1.3 8.2-1.3 9 0 1.1 1.8 4.7 1.1 8.4-1.7 2-1.5 7.1-6.1 11.4-10.2l7.7-7.4v-21.8c0-11.9-.3-22.4-.6-23.3-.5-1.4-4.5-1.6-34.4-1.6-31.4 0-33.8.1-35.3 1.8zm63.9 23.9.2 17.2-6.4 6.5-6.4 6.6h-10.4c-10.4 0-10.4 0-13 3.1-1.4 1.7-2.6 3.4-2.6 3.8 0 .7-4.3 3.1-5.5 3.1-.3 0-.5-2.3-.5-5.1v-5.1l-6.2.4c-6.3.3-6.3.3-6.2-2.5 0-1.5.1-12.4.2-24.2l.2-21.5 28.3.2 28.2.3.1 17.2z"/><path d="M359.5 578.3c-.3.7-.4 5.8-.3 11.3l.3 9.9 3.1.3c4.8.5 5.5-1.3 5.2-12.4l-.3-9.9-3.8-.3c-2.5-.2-3.9.1-4.2 1.1zm19.2-.7c-.4.4-.7 5.1-.7 10.4 0 10.5.8 12.4 5.2 11.8 2.2-.3 2.3-.6 2.3-11.3v-11l-3-.3c-1.7-.2-3.4 0-3.8.4zm99-18.8c-1 1-1.7 2.6-1.7 3.6 0 .9-.7 3-1.5 4.6-1.3 2.5-1.5 7.4-1.3 29.7l.3 26.8 3.3.3c2 .2 4.1-.3 5.1-1.2 1.8-1.6 8.6-1.2 9.7.5.7 1.2 19.1 1.1 19.9-.1.8-1.3 4.9-1.3 9.6.1 3.5 1.1 4.1 1 7.6-1.7 2.1-1.6 7.3-6.2 11.6-10.3l7.7-7.4v-22.2c0-15.8-.3-22.4-1.2-23.3-.9-.9-9.9-1.2-34.3-1.2-30.9 0-33.3.1-34.8 1.8zm63.8 24v17.3l-6.3 6.4-6.3 6.5h-20.2l-4.8 5.1c-2.6 2.8-5.2 4.8-5.8 4.4-.6-.3-1.1-2.7-1.1-5.1v-4.6l-6.2.4-6.1.3.2-24c.2-13.2.6-24.2 1.1-24.5.4-.3 13.1-.3 28.1 0l27.3.5.1 17.3z"/><path d="M503.5 578.3c-.3.7-.4 5.8-.3 11.3l.3 9.9 3.1.3c4.8.5 5.5-1.3 5.2-12.4l-.3-9.9-3.8-.3c-2.5-.2-3.9.1-4.2 1.1zm19 0c-.3.7-.4 5.8-.3 11.3l.3 9.9h7v-22l-3.3-.3c-2-.2-3.4.2-3.7 1.1zm99.2-19.5c-1 1-1.7 2.6-1.7 3.4 0 .9-.7 3.2-1.5 5.1-1.2 2.9-1.5 8.7-1.5 28.6 0 13.7.3 25.6.6 26.5.7 1.8 7.4 2.3 7.4.6 0-1.8 4.7-2.1 8.5-.6 4.2 1.8 21 2.2 22 .6.8-1.4 6.1-1.3 10.1.2 3 1 3.6.9 7.1-1.7 2.1-1.6 7.3-6.2 11.6-10.4l7.7-7.5v-22.1c0-15.9-.3-22.4-1.2-23.3-.9-.9-9.9-1.2-34.3-1.2-30.9 0-33.3.1-34.8 1.8zm63.8 24v17.3l-6.2 6.5-6.3 6.4h-20.3l-4.8 5.1c-2.6 2.8-5.2 4.8-5.8 4.4-.6-.3-1.1-2.7-1.1-5.2v-4.6l-5.9.7c-4.4.5-6 .3-6.2-.6-.2-.7-.3-11.8-.1-24.6l.3-23.2 28.2.2 28.2.3v17.3z"/><path d="M647.5 578.3c-.3.7-.4 5.8-.3 11.3l.3 9.9 2.8.3c4.8.6 5.4-.8 5.3-12l-.1-10.3-3.8-.3c-2.5-.2-3.9.1-4.2 1.1zm19 0c-.3.7-.4 5.8-.3 11.3l.3 9.9h7v-22l-3.3-.3c-2-.2-3.4.2-3.7 1.1zm99.4-19.7c-3.4 4.1-4.3 10.7-4.6 35.9-.2 13.7-.1 26 .2 27.2.4 1.8 1.3 2.3 3.6 2.3 1.7 0 3.7-.7 4.6-1.5 1.6-1.6 7.6-1.2 10 .7 1.3 1 18.1.5 22.6-.7 1.7-.5 4.4-.3 6.7.5 3.6 1.2 4 1.1 7.7-1.6 2.1-1.6 7.3-6.2 11.6-10.3l7.7-7.5v-22.1c0-15.9-.3-22.4-1.2-23.3-.9-.9-9.9-1.2-34.4-1.2-29.5 0-33.3.2-34.5 1.6zm63.6 24.3v17.3l-6.4 6.4-6.4 6.4h-20l-4.7 5c-2.6 2.8-5.2 5-5.8 5-.8 0-1.2-1.9-1.2-5.1v-5.1l-6.2.4c-6.3.3-6.3.3-6.2-2.5 0-1.5.1-12.4.2-24.2l.2-21.5 28.3.2 28.2.3v17.4z"/><path d="M791.5 578.3c-.3.7-.4 5.8-.3 11.3l.3 9.9 3.1.3c4.8.5 5.5-1.3 5.2-12.4l-.3-9.9-3.8-.3c-2.5-.2-3.9.1-4.2 1.1zm19 0c-.3.7-.4 5.8-.3 11.3l.3 9.9h7v-22l-3.3-.3c-2-.2-3.4.2-3.7 1.1z"/></svg>